<svg version="1.1" viewBox="0 0 97.33746355685132 100.07947976878613" xmlns:xlink="http://www.w3.org/1999/xlink" xmlns="http://www.w3.org/2000/svg" style="max-height: 500px" width="97.33746355685132" height="100.07947976878613">
<g id="surface1">
<path d="M 127.289063 44.453125 L 115.316406 44.453125 L 115.316406 3.320313 L 126.035156 3.320313 L 136.257813 17.148438 L 146.480469 3.320313 L 157.203125 3.320313 L 157.203125 44.453125 L 145.230469 44.453125 L 145.527344 19.152344 L 145.429688 19.054688 L 136.257813 31.582031 L 127.089844 19.054688 L 126.988281 19.152344 L 127.289063 44.453125" style="stroke:none;fill-rule:nonzero;fill:rgb(13.699341%,12.199402%,12.5%);fill-opacity:1;"/>
<path d="M 188.414063 32.726563 L 183.203125 19.199219 L 177.941406 32.726563 Z M 176.941406 10.277344 L 189.46875 10.277344 L 205.050781 44.453125 L 193.175781 44.453125 L 190.921875 38.890625 L 175.488281 38.890625 L 173.234375 44.453125 L 161.359375 44.453125 L 176.941406 10.277344" style="stroke:none;fill-rule:nonzero;fill:rgb(13.699341%,12.199402%,12.5%);fill-opacity:1;"/>
<path d="M 200.738281 18.847656 L 200.738281 10.277344 L 234.058594 10.277344 L 234.058594 18.847656 L 223.386719 18.847656 L 223.386719 44.453125 L 211.410156 44.453125 L 211.410156 18.847656 L 200.738281 18.847656" style="stroke:none;fill-rule:nonzero;fill:rgb(13.699341%,12.199402%,12.5%);fill-opacity:1;"/>
<path d="M 269.832031 41.898438 C 266.273438 43.898438 261.8125 44.902344 257.105469 44.902344 C 242.824219 44.902344 237.914063 35.332031 237.914063 27.515625 C 237.914063 17.542969 245.179688 9.828125 257.707031 9.828125 C 262.214844 9.828125 266.222656 10.628906 269.53125 12.132813 L 269.53125 22.101563 C 266.074219 19.898438 263.066406 18.945313 259.609375 18.945313 C 253.597656 18.945313 249.890625 22.152344 249.890625 27.363281 C 249.890625 32.476563 253.695313 35.78125 259.710938 35.78125 C 263.167969 35.78125 265.972656 34.929688 269.832031 32.777344 L 269.832031 41.898438" style="stroke:none;fill-rule:nonzero;fill:rgb(13.699341%,12.199402%,12.5%);fill-opacity:1;"/>
<path d="M 277.09375 10.277344 L 289.066406 10.277344 L 289.066406 22.707031 L 302.246094 22.707031 L 302.246094 10.277344 L 314.222656 10.277344 L 314.222656 44.453125 L 302.246094 44.453125 L 302.246094 31.523438 L 289.066406 31.523438 L 289.066406 44.453125 L 277.09375 44.453125 L 277.09375 10.277344" style="stroke:none;fill-rule:nonzero;fill:rgb(13.699341%,12.199402%,12.5%);fill-opacity:1;"/>
<path d="M 127.21875 97.449219 L 115.242188 97.449219 L 115.242188 56.320313 L 125.96875 56.320313 L 136.1875 70.148438 L 146.410156 56.320313 L 157.132813 56.320313 L 157.132813 97.449219 L 145.15625 97.449219 L 145.457031 72.152344 L 145.359375 72.054688 L 136.1875 84.582031 L 127.019531 72.054688 L 126.917969 72.152344 L 127.21875 97.449219" style="stroke:none;fill-rule:nonzero;fill:rgb(13.699341%,12.199402%,12.5%);fill-opacity:1;"/>
<path d="M 188.34375 85.789063 L 183.132813 72.261719 L 177.871094 85.789063 Z M 176.871094 63.34375 L 189.398438 63.34375 L 204.980469 97.515625 L 193.105469 97.515625 L 190.851563 91.957031 L 175.417969 91.957031 L 173.160156 97.515625 L 161.285156 97.515625 L 176.871094 63.34375" style="stroke:none;fill-rule:nonzero;fill:rgb(13.699341%,12.199402%,12.5%);fill-opacity:1;"/>
<path d="M 209.285156 63.34375 L 221.261719 63.34375 L 221.261719 78.828125 L 234.941406 63.34375 L 247.515625 63.34375 L 233.585938 79.226563 L 248.015625 97.515625 L 233.738281 97.515625 L 221.359375 81.53125 L 221.261719 81.53125 L 221.261719 97.515625 L 209.285156 97.515625 L 209.285156 63.34375" style="stroke:none;fill-rule:nonzero;fill:rgb(13.699341%,12.199402%,12.5%);fill-opacity:1;"/>
<path d="M 250.917969 63.34375 L 276.523438 63.34375 L 276.523438 70.558594 L 262.894531 70.558594 L 262.894531 76.574219 L 275.371094 76.574219 L 275.371094 83.789063 L 262.894531 83.789063 L 262.894531 90.300781 L 276.726563 90.300781 L 276.726563 97.515625 L 250.917969 97.515625 L 250.917969 63.34375" style="stroke:none;fill-rule:nonzero;fill:rgb(13.699341%,12.199402%,12.5%);fill-opacity:1;"/>
<path d="M 298.015625 77.976563 C 301.875 77.976563 304.128906 76.371094 304.128906 73.363281 C 304.128906 70.359375 302.023438 68.855469 298.269531 68.855469 L 294.761719 68.855469 L 294.761719 77.976563 Z M 282.785156 63.34375 L 302.273438 63.34375 C 311.492188 63.34375 315.453125 67.753906 315.453125 73.113281 C 315.453125 76.722656 313.601563 79.429688 309.941406 81.03125 C 312.394531 82.082031 313.699219 84.4375 315.554688 88.496094 L 319.613281 97.515625 L 307.835938 97.515625 L 305.683594 92.457031 C 303.179688 86.59375 301.273438 83.234375 298.015625 83.234375 L 294.761719 83.234375 L 294.761719 97.515625 L 282.785156 97.515625 L 282.785156 63.34375" style="stroke:none;fill-rule:nonzero;fill:rgb(13.699341%,12.199402%,12.5%);fill-opacity:1;"/>
<path d="M 19.375 10.378906 C 24.886719 7.871094 29.324219 6.125 32.820313 5.035156 C 36.3125 3.945313 39.273438 3.402344 41.828125 3.402344 C 44.785156 3.402344 47.476563 4.054688 49.761719 5.363281 C 51.910156 6.5625 53.792969 8.304688 55.136719 10.707031 C 60.652344 8.199219 65.355469 6.34375 69.253906 5.140625 C 73.023438 3.945313 76.246094 3.402344 79.074219 3.402344 C 84.3125 3.402344 88.078125 4.816406 90.496094 7.761719 C 92.921875 10.597656 94.128906 15.289063 94.128906 21.832031 L 94.128906 49.207031 L 77.996094 45.746094 L 77.859375 26.519531 C 77.859375 20.300781 76.917969 16.269531 74.902344 14.195313 C 72.886719 12.230469 69.527344 11.25 64.417969 11.144531 C 62.9375 11.144531 61.460938 11.25 59.980469 11.25 C 58.5 11.46875 57.15625 11.578125 55.675781 11.796875 C 56.078125 12.996094 56.214844 14.414063 56.484375 16.160156 C 56.613281 17.683594 56.753906 19.539063 56.753906 21.832031 L 56.753906 54.652344 L 40.503906 54.242188 L 40.480469 26.519531 C 40.480469 20.082031 39.542969 15.941406 37.390625 13.980469 C 35.375 11.90625 31.609375 10.921875 25.828125 10.921875 C 24.886719 10.921875 23.945313 10.921875 22.734375 11.144531 C 21.660156 11.144531 20.585938 11.25 19.375 11.46875 L 19.375 66.1875 L 3.238281 66.1875 L 3.238281 6.34375 L 19.375 2.964844 L 19.375 10.378906" style="stroke:none;fill-rule:nonzero;fill:rgb(0%,40.79895%,69.799805%);fill-opacity:1;"/>
<path d="M 41.695313 54.582031 C 40.214844 54.359375 38.859375 54.1875 37.390625 54.078125 C 35.917969 53.96875 34.429688 53.925781 32.957031 53.925781 C 27.84375 54.035156 24.480469 55.019531 22.464844 56.980469 C 20.453125 59.050781 19.507813 63.085938 19.507813 69.300781 L 19.507813 97.4375 L 3.238281 97.4375 L 3.238281 64.613281 C 3.238281 58.070313 4.449219 53.378906 6.871094 50.542969 C 9.289063 47.597656 13.054688 46.183594 18.296875 46.183594 C 21.121094 46.183594 24.347656 46.726563 28.113281 47.925781 C 32.011719 49.128906 36.71875 50.984375 42.230469 53.492188 L 41.695313 54.582031" style="stroke:none;fill-rule:nonzero;fill:rgb(85.099792%,32.499695%,11.799622%);fill-opacity:1;"/>
<path d="M 42.230469 53.492188 C 43.578125 51.089844 45.457031 49.347656 47.609375 48.148438 C 49.898438 46.839844 52.582031 46.183594 55.539063 46.183594 C 58.097656 46.183594 61.054688 46.726563 64.550781 47.820313 C 68.046875 48.90625 72.484375 50.65625 77.996094 53.164063 L 77.984375 54.21875 C 76.773438 54 75.734375 53.90625 74.671875 53.828125 C 73.445313 53.738281 72.484375 53.707031 71.539063 53.707031 C 65.761719 53.707031 61.996094 54.691406 59.980469 56.761719 C 57.832031 58.726563 56.886719 62.867188 56.886719 69.300781 L 56.886719 97.4375 L 40.617188 97.4375 L 40.617188 64.613281 C 40.617188 62.320313 40.753906 60.46875 40.886719 58.945313 C 41.15625 57.195313 41.292969 55.78125 41.695313 54.582031" style="stroke:none;fill-rule:nonzero;fill:rgb(36.499023%,59.199524%,19.599915%);fill-opacity:1;"/>
<path d="M 77.996094 53.164063 L 77.996094 45.746094 L 94.128906 49.128906 L 94.128906 97.4375 L 77.996094 97.4375 L 77.996094 53.164063" style="stroke:none;fill-rule:nonzero;fill:rgb(81.999207%,51.399231%,8.599854%);fill-opacity:1;"/>
<path transform="matrix(0.1,0,0,-0.1,0,101.25)" d="M 4021.25 1.25 L 1.25 1.25 L 1.25 1011.25 L 4021.25 1011.25 Z M 4021.25 1.25" style="fill:none;stroke-width:2.5;stroke-linecap:butt;stroke-linejoin:miter;stroke:rgb(100%,100%,100%);stroke-opacity:1;stroke-miterlimit:4;"/>
</g>
</svg>